<mxfile host="app.diagrams.net" modified="2023-08-24T12:16:09.028Z" agent="Mozilla/5.0 (Windows NT 10.0; Win64; x64) AppleWebKit/537.36 (KHTML, like Gecko) Chrome/116.0.0.0 Safari/537.36 Edg/116.0.1938.54" etag="I1x91Clql_l0DOXHI5Zx" version="21.6.9" type="device">
  <diagram name="Página-1" id="gRvEHwZlTloLubuyV9cK">
    <mxGraphModel dx="1379" dy="788" grid="1" gridSize="10" guides="1" tooltips="1" connect="1" arrows="1" fold="1" page="1" pageScale="1" pageWidth="827" pageHeight="1169" math="0" shadow="0">
      <root>
        <mxCell id="0" />
        <mxCell id="1" parent="0" />
        <mxCell id="BY53udgPj0jniwftNeNF-1" value="Alocação" style="whiteSpace=wrap;html=1;align=center;fillColor=#f8cecc;strokeColor=#b85450;" vertex="1" parent="1">
          <mxGeometry x="342" y="260" width="90" height="40" as="geometry" />
        </mxCell>
        <mxCell id="BY53udgPj0jniwftNeNF-10" style="rounded=0;orthogonalLoop=1;jettySize=auto;html=1;exitX=1;exitY=1;exitDx=0;exitDy=0;entryX=0.25;entryY=0;entryDx=0;entryDy=0;endArrow=none;endFill=0;fillColor=#f8cecc;strokeColor=#b85450;" edge="1" parent="1" source="BY53udgPj0jniwftNeNF-2" target="BY53udgPj0jniwftNeNF-1">
          <mxGeometry relative="1" as="geometry" />
        </mxCell>
        <mxCell id="BY53udgPj0jniwftNeNF-2" value="id" style="ellipse;whiteSpace=wrap;html=1;align=center;fontStyle=4;fillColor=#f8cecc;strokeColor=#b85450;" vertex="1" parent="1">
          <mxGeometry x="252" y="210" width="90" height="40" as="geometry" />
        </mxCell>
        <mxCell id="BY53udgPj0jniwftNeNF-11" style="rounded=0;orthogonalLoop=1;jettySize=auto;html=1;exitX=0.5;exitY=1;exitDx=0;exitDy=0;entryX=0.5;entryY=0;entryDx=0;entryDy=0;endArrow=none;endFill=0;fillColor=#f8cecc;strokeColor=#b85450;" edge="1" parent="1" source="BY53udgPj0jniwftNeNF-3" target="BY53udgPj0jniwftNeNF-1">
          <mxGeometry relative="1" as="geometry" />
        </mxCell>
        <mxCell id="BY53udgPj0jniwftNeNF-3" value="área" style="ellipse;whiteSpace=wrap;html=1;align=center;fillColor=#f8cecc;strokeColor=#b85450;" vertex="1" parent="1">
          <mxGeometry x="342" y="190" width="90" height="40" as="geometry" />
        </mxCell>
        <mxCell id="BY53udgPj0jniwftNeNF-12" style="rounded=0;orthogonalLoop=1;jettySize=auto;html=1;exitX=0;exitY=1;exitDx=0;exitDy=0;entryX=0.75;entryY=0;entryDx=0;entryDy=0;endArrow=none;endFill=0;fillColor=#f8cecc;strokeColor=#b85450;" edge="1" parent="1" source="BY53udgPj0jniwftNeNF-4" target="BY53udgPj0jniwftNeNF-1">
          <mxGeometry relative="1" as="geometry" />
        </mxCell>
        <mxCell id="BY53udgPj0jniwftNeNF-4" value="automóvel" style="ellipse;whiteSpace=wrap;html=1;align=center;fillColor=#f8cecc;strokeColor=#b85450;" vertex="1" parent="1">
          <mxGeometry x="432" y="210" width="90" height="40" as="geometry" />
        </mxCell>
        <mxCell id="BY53udgPj0jniwftNeNF-8" style="rounded=0;orthogonalLoop=1;jettySize=auto;html=1;exitX=1;exitY=0;exitDx=0;exitDy=0;entryX=0.25;entryY=1;entryDx=0;entryDy=0;endArrow=none;endFill=0;fillColor=#f8cecc;strokeColor=#b85450;" edge="1" parent="1" source="BY53udgPj0jniwftNeNF-5" target="BY53udgPj0jniwftNeNF-1">
          <mxGeometry relative="1" as="geometry" />
        </mxCell>
        <mxCell id="BY53udgPj0jniwftNeNF-5" value="concecionária" style="ellipse;whiteSpace=wrap;html=1;align=center;fillColor=#f8cecc;strokeColor=#b85450;" vertex="1" parent="1">
          <mxGeometry x="287" y="330" width="90" height="40" as="geometry" />
        </mxCell>
        <mxCell id="BY53udgPj0jniwftNeNF-9" style="rounded=0;orthogonalLoop=1;jettySize=auto;html=1;exitX=0;exitY=0;exitDx=0;exitDy=0;entryX=0.75;entryY=1;entryDx=0;entryDy=0;endArrow=none;endFill=0;fillColor=#f8cecc;strokeColor=#b85450;" edge="1" parent="1" source="BY53udgPj0jniwftNeNF-7" target="BY53udgPj0jniwftNeNF-1">
          <mxGeometry relative="1" as="geometry" />
        </mxCell>
        <mxCell id="BY53udgPj0jniwftNeNF-7" value="quantidade" style="ellipse;whiteSpace=wrap;html=1;align=center;fillColor=#f8cecc;strokeColor=#b85450;" vertex="1" parent="1">
          <mxGeometry x="397" y="330" width="90" height="40" as="geometry" />
        </mxCell>
        <mxCell id="BY53udgPj0jniwftNeNF-35" style="edgeStyle=orthogonalEdgeStyle;rounded=0;orthogonalLoop=1;jettySize=auto;html=1;exitX=0;exitY=0.5;exitDx=0;exitDy=0;entryX=1;entryY=0.5;entryDx=0;entryDy=0;endArrow=none;endFill=0;fillColor=#f8cecc;strokeColor=#b85450;" edge="1" parent="1" source="BY53udgPj0jniwftNeNF-13" target="BY53udgPj0jniwftNeNF-1">
          <mxGeometry relative="1" as="geometry" />
        </mxCell>
        <mxCell id="BY53udgPj0jniwftNeNF-13" value="Automóveis" style="whiteSpace=wrap;html=1;align=center;fillColor=#e1d5e7;strokeColor=#9673a6;" vertex="1" parent="1">
          <mxGeometry x="603" y="260" width="90" height="40" as="geometry" />
        </mxCell>
        <mxCell id="BY53udgPj0jniwftNeNF-19" style="rounded=0;orthogonalLoop=1;jettySize=auto;html=1;exitX=0.5;exitY=0;exitDx=0;exitDy=0;entryX=0.5;entryY=1;entryDx=0;entryDy=0;endArrow=none;endFill=0;fillColor=#e1d5e7;strokeColor=#9673a6;" edge="1" parent="1" source="BY53udgPj0jniwftNeNF-14" target="BY53udgPj0jniwftNeNF-13">
          <mxGeometry relative="1" as="geometry" />
        </mxCell>
        <mxCell id="BY53udgPj0jniwftNeNF-14" value="id" style="ellipse;whiteSpace=wrap;html=1;align=center;fontStyle=4;fillColor=#e1d5e7;strokeColor=#9673a6;" vertex="1" parent="1">
          <mxGeometry x="603" y="320" width="90" height="40" as="geometry" />
        </mxCell>
        <mxCell id="BY53udgPj0jniwftNeNF-17" style="rounded=0;orthogonalLoop=1;jettySize=auto;html=1;exitX=1;exitY=1;exitDx=0;exitDy=0;entryX=0.25;entryY=0;entryDx=0;entryDy=0;endArrow=none;endFill=0;fillColor=#e1d5e7;strokeColor=#9673a6;" edge="1" parent="1" source="BY53udgPj0jniwftNeNF-15" target="BY53udgPj0jniwftNeNF-13">
          <mxGeometry relative="1" as="geometry" />
        </mxCell>
        <mxCell id="BY53udgPj0jniwftNeNF-15" value="modelo" style="ellipse;whiteSpace=wrap;html=1;align=center;fillColor=#e1d5e7;strokeColor=#9673a6;" vertex="1" parent="1">
          <mxGeometry x="539" y="200" width="90" height="40" as="geometry" />
        </mxCell>
        <mxCell id="BY53udgPj0jniwftNeNF-18" style="rounded=0;orthogonalLoop=1;jettySize=auto;html=1;exitX=0;exitY=1;exitDx=0;exitDy=0;entryX=0.75;entryY=0;entryDx=0;entryDy=0;endArrow=none;endFill=0;fillColor=#e1d5e7;strokeColor=#9673a6;" edge="1" parent="1" source="BY53udgPj0jniwftNeNF-16" target="BY53udgPj0jniwftNeNF-13">
          <mxGeometry relative="1" as="geometry" />
        </mxCell>
        <mxCell id="BY53udgPj0jniwftNeNF-16" value="preço" style="ellipse;whiteSpace=wrap;html=1;align=center;fillColor=#e1d5e7;strokeColor=#9673a6;" vertex="1" parent="1">
          <mxGeometry x="669" y="200" width="90" height="40" as="geometry" />
        </mxCell>
        <mxCell id="BY53udgPj0jniwftNeNF-21" value="Clientes" style="whiteSpace=wrap;html=1;align=center;fillColor=#d5e8d4;strokeColor=#82b366;" vertex="1" parent="1">
          <mxGeometry x="341" y="490" width="90" height="40" as="geometry" />
        </mxCell>
        <mxCell id="BY53udgPj0jniwftNeNF-25" style="rounded=0;orthogonalLoop=1;jettySize=auto;html=1;exitX=0;exitY=1;exitDx=0;exitDy=0;entryX=0.5;entryY=0;entryDx=0;entryDy=0;endArrow=none;endFill=0;fillColor=#d5e8d4;strokeColor=#82b366;" edge="1" parent="1" source="BY53udgPj0jniwftNeNF-22" target="BY53udgPj0jniwftNeNF-21">
          <mxGeometry relative="1" as="geometry" />
        </mxCell>
        <mxCell id="BY53udgPj0jniwftNeNF-22" value="id" style="ellipse;whiteSpace=wrap;html=1;align=center;fontStyle=4;fillColor=#d5e8d4;strokeColor=#82b366;" vertex="1" parent="1">
          <mxGeometry x="407" y="430" width="90" height="40" as="geometry" />
        </mxCell>
        <mxCell id="BY53udgPj0jniwftNeNF-24" style="rounded=0;orthogonalLoop=1;jettySize=auto;html=1;exitX=1;exitY=1;exitDx=0;exitDy=0;entryX=0.5;entryY=0;entryDx=0;entryDy=0;endArrow=none;endFill=0;fillColor=#d5e8d4;strokeColor=#82b366;" edge="1" parent="1" source="BY53udgPj0jniwftNeNF-23" target="BY53udgPj0jniwftNeNF-21">
          <mxGeometry relative="1" as="geometry" />
        </mxCell>
        <mxCell id="BY53udgPj0jniwftNeNF-23" value="nome" style="ellipse;whiteSpace=wrap;html=1;align=center;fillColor=#d5e8d4;strokeColor=#82b366;" vertex="1" parent="1">
          <mxGeometry x="277" y="430" width="90" height="40" as="geometry" />
        </mxCell>
        <mxCell id="BY53udgPj0jniwftNeNF-33" style="edgeStyle=orthogonalEdgeStyle;rounded=0;orthogonalLoop=1;jettySize=auto;html=1;exitX=1;exitY=0.5;exitDx=0;exitDy=0;entryX=0;entryY=0.5;entryDx=0;entryDy=0;endArrow=none;endFill=0;fillColor=#f8cecc;strokeColor=#b85450;" edge="1" parent="1" source="BY53udgPj0jniwftNeNF-27" target="BY53udgPj0jniwftNeNF-1">
          <mxGeometry relative="1" as="geometry" />
        </mxCell>
        <mxCell id="BY53udgPj0jniwftNeNF-27" value="Concessionária" style="whiteSpace=wrap;html=1;align=center;fillColor=#dae8fc;strokeColor=#6c8ebf;" vertex="1" parent="1">
          <mxGeometry x="149" y="260" width="90" height="40" as="geometry" />
        </mxCell>
        <mxCell id="BY53udgPj0jniwftNeNF-31" style="rounded=0;orthogonalLoop=1;jettySize=auto;html=1;exitX=1;exitY=1;exitDx=0;exitDy=0;entryX=0.25;entryY=0;entryDx=0;entryDy=0;endArrow=none;endFill=0;fillColor=#dae8fc;strokeColor=#6c8ebf;" edge="1" parent="1" source="BY53udgPj0jniwftNeNF-28" target="BY53udgPj0jniwftNeNF-27">
          <mxGeometry relative="1" as="geometry" />
        </mxCell>
        <mxCell id="BY53udgPj0jniwftNeNF-28" value="id" style="ellipse;whiteSpace=wrap;html=1;align=center;fontStyle=4;fillColor=#dae8fc;strokeColor=#6c8ebf;" vertex="1" parent="1">
          <mxGeometry x="69" y="210" width="90" height="40" as="geometry" />
        </mxCell>
        <mxCell id="BY53udgPj0jniwftNeNF-30" style="rounded=0;orthogonalLoop=1;jettySize=auto;html=1;exitX=1;exitY=0;exitDx=0;exitDy=0;entryX=0.25;entryY=1;entryDx=0;entryDy=0;endArrow=none;endFill=0;fillColor=#dae8fc;strokeColor=#6c8ebf;" edge="1" parent="1" source="BY53udgPj0jniwftNeNF-29" target="BY53udgPj0jniwftNeNF-27">
          <mxGeometry relative="1" as="geometry" />
        </mxCell>
        <mxCell id="BY53udgPj0jniwftNeNF-29" value="concessionaria" style="ellipse;whiteSpace=wrap;html=1;align=center;fillColor=#dae8fc;strokeColor=#6c8ebf;" vertex="1" parent="1">
          <mxGeometry x="69" y="310" width="90" height="40" as="geometry" />
        </mxCell>
      </root>
    </mxGraphModel>
  </diagram>
</mxfile>
